<mxfile host="app.diagrams.net" modified="2023-12-22T10:10:03.527Z" agent="Mozilla/5.0 (Windows NT 10.0; Win64; x64) AppleWebKit/537.36 (KHTML, like Gecko) Chrome/120.0.0.0 Safari/537.36 Edg/120.0.0.0" etag="cAUxgx1dTdddU6NNamkJ" version="22.1.11" type="device">
  <diagram id="C5RBs43oDa-KdzZeNtuy" name="Page-1">
    <mxGraphModel dx="946" dy="481" grid="1" gridSize="10" guides="1" tooltips="1" connect="1" arrows="1" fold="1" page="1" pageScale="1" pageWidth="827" pageHeight="1169" math="0" shadow="0">
      <root>
        <mxCell id="WIyWlLk6GJQsqaUBKTNV-0" />
        <mxCell id="WIyWlLk6GJQsqaUBKTNV-1" parent="WIyWlLk6GJQsqaUBKTNV-0" />
        <mxCell id="7aRUs-XJxXH79zXGztug-4" value="" style="edgeStyle=orthogonalEdgeStyle;rounded=0;orthogonalLoop=1;jettySize=auto;html=1;" edge="1" parent="WIyWlLk6GJQsqaUBKTNV-1" source="7aRUs-XJxXH79zXGztug-0" target="7aRUs-XJxXH79zXGztug-3">
          <mxGeometry relative="1" as="geometry" />
        </mxCell>
        <mxCell id="7aRUs-XJxXH79zXGztug-0" value="&lt;font style=&quot;font-size: 17px;&quot; face=&quot;Verdana&quot;&gt;開始畫面&lt;/font&gt;" style="rounded=1;whiteSpace=wrap;html=1;" vertex="1" parent="WIyWlLk6GJQsqaUBKTNV-1">
          <mxGeometry x="70" y="230" width="100" height="40" as="geometry" />
        </mxCell>
        <mxCell id="7aRUs-XJxXH79zXGztug-8" value="" style="edgeStyle=orthogonalEdgeStyle;rounded=0;orthogonalLoop=1;jettySize=auto;html=1;" edge="1" parent="WIyWlLk6GJQsqaUBKTNV-1" source="7aRUs-XJxXH79zXGztug-3" target="7aRUs-XJxXH79zXGztug-7">
          <mxGeometry relative="1" as="geometry" />
        </mxCell>
        <mxCell id="7aRUs-XJxXH79zXGztug-14" value="&lt;font style=&quot;font-size: 15px;&quot;&gt;進入主迴圈&lt;/font&gt;" style="edgeLabel;html=1;align=center;verticalAlign=middle;resizable=0;points=[];" vertex="1" connectable="0" parent="7aRUs-XJxXH79zXGztug-8">
          <mxGeometry x="-0.2583" y="2" relative="1" as="geometry">
            <mxPoint x="20" y="2" as="offset" />
          </mxGeometry>
        </mxCell>
        <mxCell id="7aRUs-XJxXH79zXGztug-3" value="&lt;font style=&quot;font-size: 17px;&quot; face=&quot;Verdana&quot;&gt;初始化各項參數&lt;/font&gt;" style="rounded=1;whiteSpace=wrap;html=1;" vertex="1" parent="WIyWlLk6GJQsqaUBKTNV-1">
          <mxGeometry x="220" y="230" width="140" height="40" as="geometry" />
        </mxCell>
        <mxCell id="7aRUs-XJxXH79zXGztug-16" value="" style="edgeStyle=orthogonalEdgeStyle;rounded=0;orthogonalLoop=1;jettySize=auto;html=1;" edge="1" parent="WIyWlLk6GJQsqaUBKTNV-1" source="7aRUs-XJxXH79zXGztug-7" target="7aRUs-XJxXH79zXGztug-15">
          <mxGeometry relative="1" as="geometry" />
        </mxCell>
        <mxCell id="7aRUs-XJxXH79zXGztug-17" value="&lt;font style=&quot;font-size: 15px;&quot;&gt;結束遊戲&lt;/font&gt;" style="edgeLabel;html=1;align=center;verticalAlign=middle;resizable=0;points=[];" vertex="1" connectable="0" parent="7aRUs-XJxXH79zXGztug-16">
          <mxGeometry x="-0.2222" y="1" relative="1" as="geometry">
            <mxPoint x="6" as="offset" />
          </mxGeometry>
        </mxCell>
        <mxCell id="7aRUs-XJxXH79zXGztug-21" value="" style="edgeStyle=orthogonalEdgeStyle;rounded=0;orthogonalLoop=1;jettySize=auto;html=1;" edge="1" parent="WIyWlLk6GJQsqaUBKTNV-1" source="7aRUs-XJxXH79zXGztug-7" target="7aRUs-XJxXH79zXGztug-20">
          <mxGeometry relative="1" as="geometry" />
        </mxCell>
        <mxCell id="7aRUs-XJxXH79zXGztug-22" value="&lt;font style=&quot;font-size: 15px;&quot;&gt;繼續遊戲&lt;/font&gt;" style="edgeLabel;html=1;align=center;verticalAlign=middle;resizable=0;points=[];" vertex="1" connectable="0" parent="7aRUs-XJxXH79zXGztug-21">
          <mxGeometry x="-0.3538" y="2" relative="1" as="geometry">
            <mxPoint x="-2" y="11" as="offset" />
          </mxGeometry>
        </mxCell>
        <mxCell id="7aRUs-XJxXH79zXGztug-7" value="&lt;font style=&quot;font-size: 17px;&quot;&gt;判斷遊戲&lt;br&gt;目前的狀態&lt;/font&gt;" style="rhombus;whiteSpace=wrap;html=1;rounded=1;" vertex="1" parent="WIyWlLk6GJQsqaUBKTNV-1">
          <mxGeometry x="608.5" y="202.5" width="150" height="95" as="geometry" />
        </mxCell>
        <mxCell id="7aRUs-XJxXH79zXGztug-11" value="" style="endArrow=classic;html=1;rounded=0;exitX=0.5;exitY=0;exitDx=0;exitDy=0;entryX=0.5;entryY=0;entryDx=0;entryDy=0;" edge="1" parent="WIyWlLk6GJQsqaUBKTNV-1" source="7aRUs-XJxXH79zXGztug-7" target="7aRUs-XJxXH79zXGztug-3">
          <mxGeometry width="50" height="50" relative="1" as="geometry">
            <mxPoint x="480" y="270" as="sourcePoint" />
            <mxPoint x="290" y="120" as="targetPoint" />
            <Array as="points">
              <mxPoint x="684" y="160" />
              <mxPoint x="290" y="160" />
            </Array>
          </mxGeometry>
        </mxCell>
        <mxCell id="7aRUs-XJxXH79zXGztug-13" value="&lt;font style=&quot;font-size: 15px;&quot;&gt;重新開始&lt;/font&gt;" style="edgeLabel;html=1;align=center;verticalAlign=middle;resizable=0;points=[];" vertex="1" connectable="0" parent="7aRUs-XJxXH79zXGztug-11">
          <mxGeometry x="-0.1055" y="1" relative="1" as="geometry">
            <mxPoint x="-7" as="offset" />
          </mxGeometry>
        </mxCell>
        <mxCell id="7aRUs-XJxXH79zXGztug-15" value="&lt;font style=&quot;font-size: 17px;&quot;&gt;顯示結束畫面&lt;/font&gt;" style="whiteSpace=wrap;html=1;rounded=1;" vertex="1" parent="WIyWlLk6GJQsqaUBKTNV-1">
          <mxGeometry x="878.5" y="220" width="120" height="60" as="geometry" />
        </mxCell>
        <mxCell id="7aRUs-XJxXH79zXGztug-28" value="" style="edgeStyle=orthogonalEdgeStyle;rounded=0;orthogonalLoop=1;jettySize=auto;html=1;" edge="1" parent="WIyWlLk6GJQsqaUBKTNV-1" source="7aRUs-XJxXH79zXGztug-20" target="7aRUs-XJxXH79zXGztug-27">
          <mxGeometry relative="1" as="geometry" />
        </mxCell>
        <mxCell id="7aRUs-XJxXH79zXGztug-20" value="&lt;font style=&quot;font-size: 17px;&quot;&gt;&lt;ul&gt;&lt;li&gt;&lt;font style=&quot;font-size: 17px;&quot;&gt;顯示各個遊戲物件&lt;/font&gt;&lt;/li&gt;&lt;li&gt;&lt;font style=&quot;font-size: 17px;&quot;&gt;偵測物件碰撞&lt;/font&gt;&lt;/li&gt;&lt;li&gt;讀取使用者輸入&lt;/li&gt;&lt;/ul&gt;&lt;/font&gt;" style="whiteSpace=wrap;html=1;rounded=1;align=left;" vertex="1" parent="WIyWlLk6GJQsqaUBKTNV-1">
          <mxGeometry x="579.75" y="380" width="207.5" height="80" as="geometry" />
        </mxCell>
        <mxCell id="7aRUs-XJxXH79zXGztug-30" value="" style="edgeStyle=orthogonalEdgeStyle;rounded=0;orthogonalLoop=1;jettySize=auto;html=1;entryX=0;entryY=0.5;entryDx=0;entryDy=0;" edge="1" parent="WIyWlLk6GJQsqaUBKTNV-1" source="7aRUs-XJxXH79zXGztug-27" target="7aRUs-XJxXH79zXGztug-34">
          <mxGeometry relative="1" as="geometry">
            <mxPoint x="878.5" y="545" as="targetPoint" />
          </mxGeometry>
        </mxCell>
        <mxCell id="7aRUs-XJxXH79zXGztug-31" value="&lt;font style=&quot;font-size: 15px;&quot;&gt;開啟選單&lt;/font&gt;" style="edgeLabel;html=1;align=center;verticalAlign=middle;resizable=0;points=[];" vertex="1" connectable="0" parent="7aRUs-XJxXH79zXGztug-30">
          <mxGeometry x="-0.1643" y="-1" relative="1" as="geometry">
            <mxPoint as="offset" />
          </mxGeometry>
        </mxCell>
        <mxCell id="7aRUs-XJxXH79zXGztug-41" value="" style="edgeStyle=orthogonalEdgeStyle;rounded=0;orthogonalLoop=1;jettySize=auto;html=1;" edge="1" parent="WIyWlLk6GJQsqaUBKTNV-1" source="7aRUs-XJxXH79zXGztug-27" target="7aRUs-XJxXH79zXGztug-40">
          <mxGeometry relative="1" as="geometry" />
        </mxCell>
        <mxCell id="7aRUs-XJxXH79zXGztug-42" value="&lt;font style=&quot;font-size: 15px;&quot;&gt;操作角色&lt;/font&gt;" style="edgeLabel;html=1;align=center;verticalAlign=middle;resizable=0;points=[];" vertex="1" connectable="0" parent="7aRUs-XJxXH79zXGztug-41">
          <mxGeometry x="0.0564" relative="1" as="geometry">
            <mxPoint x="14" as="offset" />
          </mxGeometry>
        </mxCell>
        <mxCell id="7aRUs-XJxXH79zXGztug-27" value="&lt;span style=&quot;font-size: 17px;&quot;&gt;判斷讀入&lt;br&gt;的按鍵&lt;/span&gt;" style="rhombus;whiteSpace=wrap;html=1;rounded=1;" vertex="1" parent="WIyWlLk6GJQsqaUBKTNV-1">
          <mxGeometry x="606" y="500" width="155" height="90" as="geometry" />
        </mxCell>
        <mxCell id="7aRUs-XJxXH79zXGztug-38" value="" style="edgeStyle=orthogonalEdgeStyle;rounded=0;orthogonalLoop=1;jettySize=auto;html=1;" edge="1" parent="WIyWlLk6GJQsqaUBKTNV-1" source="7aRUs-XJxXH79zXGztug-34">
          <mxGeometry relative="1" as="geometry">
            <mxPoint x="938.5" y="660" as="targetPoint" />
          </mxGeometry>
        </mxCell>
        <mxCell id="7aRUs-XJxXH79zXGztug-39" value="&lt;font style=&quot;font-size: 15px;&quot;&gt;重新開始&lt;/font&gt;" style="edgeLabel;html=1;align=center;verticalAlign=middle;resizable=0;points=[];" vertex="1" connectable="0" parent="7aRUs-XJxXH79zXGztug-38">
          <mxGeometry x="-0.5043" y="-2" relative="1" as="geometry">
            <mxPoint x="2" y="18" as="offset" />
          </mxGeometry>
        </mxCell>
        <mxCell id="7aRUs-XJxXH79zXGztug-50" value="" style="edgeStyle=orthogonalEdgeStyle;rounded=0;orthogonalLoop=1;jettySize=auto;html=1;" edge="1" parent="WIyWlLk6GJQsqaUBKTNV-1" source="7aRUs-XJxXH79zXGztug-34" target="7aRUs-XJxXH79zXGztug-49">
          <mxGeometry relative="1" as="geometry" />
        </mxCell>
        <mxCell id="7aRUs-XJxXH79zXGztug-34" value="&lt;span style=&quot;font-size: 17px;&quot;&gt;選擇遊戲選項&lt;br&gt;&lt;/span&gt;" style="rhombus;whiteSpace=wrap;html=1;rounded=1;" vertex="1" parent="WIyWlLk6GJQsqaUBKTNV-1">
          <mxGeometry x="863.5" y="495" width="150" height="95" as="geometry" />
        </mxCell>
        <mxCell id="7aRUs-XJxXH79zXGztug-37" value="&lt;font style=&quot;font-size: 17px;&quot;&gt;將遊戲狀態&lt;br&gt;設為重新開始&lt;/font&gt;" style="shape=parallelogram;perimeter=parallelogramPerimeter;whiteSpace=wrap;html=1;fixedSize=1;rounded=1;" vertex="1" parent="WIyWlLk6GJQsqaUBKTNV-1">
          <mxGeometry x="800" y="660" width="160" height="67.5" as="geometry" />
        </mxCell>
        <mxCell id="7aRUs-XJxXH79zXGztug-48" value="" style="edgeStyle=orthogonalEdgeStyle;rounded=0;orthogonalLoop=1;jettySize=auto;html=1;" edge="1" parent="WIyWlLk6GJQsqaUBKTNV-1" source="7aRUs-XJxXH79zXGztug-40" target="7aRUs-XJxXH79zXGztug-47">
          <mxGeometry relative="1" as="geometry" />
        </mxCell>
        <mxCell id="7aRUs-XJxXH79zXGztug-40" value="&lt;ul&gt;&lt;li&gt;&lt;font style=&quot;font-size: 17px;&quot;&gt;左右移動&lt;/font&gt;&lt;/li&gt;&lt;li&gt;&lt;font style=&quot;font-size: 17px;&quot;&gt;發射子彈&lt;/font&gt;&lt;/li&gt;&lt;/ul&gt;" style="whiteSpace=wrap;html=1;rounded=1;align=left;" vertex="1" parent="WIyWlLk6GJQsqaUBKTNV-1">
          <mxGeometry x="350" y="508.75" width="150" height="73.75" as="geometry" />
        </mxCell>
        <mxCell id="7aRUs-XJxXH79zXGztug-43" value="" style="endArrow=classic;html=1;rounded=0;entryX=1;entryY=0.5;entryDx=0;entryDy=0;exitX=0.5;exitY=0;exitDx=0;exitDy=0;" edge="1" parent="WIyWlLk6GJQsqaUBKTNV-1" source="7aRUs-XJxXH79zXGztug-34" target="7aRUs-XJxXH79zXGztug-20">
          <mxGeometry width="50" height="50" relative="1" as="geometry">
            <mxPoint x="928.5" y="490" as="sourcePoint" />
            <mxPoint x="978.5" y="440" as="targetPoint" />
            <Array as="points">
              <mxPoint x="938.5" y="420" />
            </Array>
          </mxGeometry>
        </mxCell>
        <mxCell id="7aRUs-XJxXH79zXGztug-44" value="&lt;font style=&quot;font-size: 15px;&quot;&gt;繼續遊戲&lt;/font&gt;" style="edgeLabel;html=1;align=center;verticalAlign=middle;resizable=0;points=[];" vertex="1" connectable="0" parent="7aRUs-XJxXH79zXGztug-43">
          <mxGeometry x="0.3923" y="3" relative="1" as="geometry">
            <mxPoint x="1" as="offset" />
          </mxGeometry>
        </mxCell>
        <mxCell id="7aRUs-XJxXH79zXGztug-54" value="" style="edgeStyle=orthogonalEdgeStyle;rounded=0;orthogonalLoop=1;jettySize=auto;html=1;" edge="1" parent="WIyWlLk6GJQsqaUBKTNV-1" source="7aRUs-XJxXH79zXGztug-47" target="7aRUs-XJxXH79zXGztug-53">
          <mxGeometry relative="1" as="geometry" />
        </mxCell>
        <mxCell id="7aRUs-XJxXH79zXGztug-57" value="&lt;font style=&quot;font-size: 15px;&quot;&gt;大於 0&lt;/font&gt;" style="edgeLabel;html=1;align=center;verticalAlign=middle;resizable=0;points=[];" vertex="1" connectable="0" parent="7aRUs-XJxXH79zXGztug-54">
          <mxGeometry x="-0.0417" y="1" relative="1" as="geometry">
            <mxPoint as="offset" />
          </mxGeometry>
        </mxCell>
        <mxCell id="7aRUs-XJxXH79zXGztug-64" value="" style="edgeStyle=orthogonalEdgeStyle;rounded=0;orthogonalLoop=1;jettySize=auto;html=1;" edge="1" parent="WIyWlLk6GJQsqaUBKTNV-1" source="7aRUs-XJxXH79zXGztug-47" target="7aRUs-XJxXH79zXGztug-63">
          <mxGeometry relative="1" as="geometry" />
        </mxCell>
        <mxCell id="7aRUs-XJxXH79zXGztug-66" value="&lt;font style=&quot;font-size: 15px;&quot;&gt;等於零&lt;/font&gt;" style="edgeLabel;html=1;align=center;verticalAlign=middle;resizable=0;points=[];" vertex="1" connectable="0" parent="7aRUs-XJxXH79zXGztug-64">
          <mxGeometry x="-0.2217" y="-2" relative="1" as="geometry">
            <mxPoint x="1" as="offset" />
          </mxGeometry>
        </mxCell>
        <mxCell id="7aRUs-XJxXH79zXGztug-47" value="&lt;font style=&quot;font-size: 17px;&quot;&gt;判斷敵人數量&lt;/font&gt;" style="rhombus;whiteSpace=wrap;html=1;align=center;rounded=1;" vertex="1" parent="WIyWlLk6GJQsqaUBKTNV-1">
          <mxGeometry x="170" y="500" width="140" height="92.12" as="geometry" />
        </mxCell>
        <mxCell id="7aRUs-XJxXH79zXGztug-49" value="&lt;font style=&quot;font-size: 17px;&quot;&gt;將遊戲狀態&lt;br&gt;設為結束&lt;/font&gt;" style="shape=parallelogram;perimeter=parallelogramPerimeter;whiteSpace=wrap;html=1;fixedSize=1;rounded=1;" vertex="1" parent="WIyWlLk6GJQsqaUBKTNV-1">
          <mxGeometry x="1068.5" y="508.75" width="160" height="67.5" as="geometry" />
        </mxCell>
        <mxCell id="7aRUs-XJxXH79zXGztug-53" value="&lt;font style=&quot;font-size: 17px;&quot;&gt;判斷角色血量&lt;/font&gt;" style="rhombus;whiteSpace=wrap;html=1;align=center;rounded=1;" vertex="1" parent="WIyWlLk6GJQsqaUBKTNV-1">
          <mxGeometry x="170" y="356.07" width="140" height="92.12" as="geometry" />
        </mxCell>
        <mxCell id="7aRUs-XJxXH79zXGztug-59" value="" style="endArrow=none;html=1;rounded=0;exitX=0.5;exitY=0;exitDx=0;exitDy=0;" edge="1" parent="WIyWlLk6GJQsqaUBKTNV-1" source="7aRUs-XJxXH79zXGztug-53">
          <mxGeometry width="50" height="50" relative="1" as="geometry">
            <mxPoint x="370" y="470" as="sourcePoint" />
            <mxPoint x="400" y="250" as="targetPoint" />
            <Array as="points">
              <mxPoint x="240" y="320" />
              <mxPoint x="400" y="320" />
            </Array>
          </mxGeometry>
        </mxCell>
        <mxCell id="7aRUs-XJxXH79zXGztug-61" value="&lt;font style=&quot;font-size: 15px;&quot;&gt;大於 0&lt;/font&gt;" style="edgeLabel;html=1;align=center;verticalAlign=middle;resizable=0;points=[];" vertex="1" connectable="0" parent="7aRUs-XJxXH79zXGztug-59">
          <mxGeometry x="-0.2655" relative="1" as="geometry">
            <mxPoint x="23" y="1" as="offset" />
          </mxGeometry>
        </mxCell>
        <mxCell id="7aRUs-XJxXH79zXGztug-62" value="" style="endArrow=classic;html=1;rounded=0;exitX=0;exitY=0.5;exitDx=0;exitDy=0;entryX=0;entryY=0.5;entryDx=0;entryDy=0;" edge="1" parent="WIyWlLk6GJQsqaUBKTNV-1" source="7aRUs-XJxXH79zXGztug-53" target="7aRUs-XJxXH79zXGztug-63">
          <mxGeometry width="50" height="50" relative="1" as="geometry">
            <mxPoint x="370" y="550" as="sourcePoint" />
            <mxPoint x="100" y="620" as="targetPoint" />
            <Array as="points">
              <mxPoint x="120" y="402" />
              <mxPoint x="120" y="720" />
            </Array>
          </mxGeometry>
        </mxCell>
        <mxCell id="7aRUs-XJxXH79zXGztug-65" value="&lt;font style=&quot;font-size: 15px;&quot;&gt;等於零&lt;/font&gt;" style="edgeLabel;html=1;align=center;verticalAlign=middle;resizable=0;points=[];" vertex="1" connectable="0" parent="7aRUs-XJxXH79zXGztug-62">
          <mxGeometry x="-0.18" y="1" relative="1" as="geometry">
            <mxPoint x="-1" y="19" as="offset" />
          </mxGeometry>
        </mxCell>
        <mxCell id="7aRUs-XJxXH79zXGztug-63" value="&lt;font style=&quot;font-size: 16px;&quot;&gt;將遊戲狀態&lt;br&gt;設為結束&lt;/font&gt;" style="shape=parallelogram;perimeter=parallelogramPerimeter;whiteSpace=wrap;html=1;fixedSize=1;rounded=1;" vertex="1" parent="WIyWlLk6GJQsqaUBKTNV-1">
          <mxGeometry x="170" y="688.18" width="140" height="60" as="geometry" />
        </mxCell>
      </root>
    </mxGraphModel>
  </diagram>
</mxfile>
